<?xml version="1.0" encoding="UTF-8" standalone="no"?>
<!-- Created with Inkscape (http://www.inkscape.org/) -->

<svg
   xmlns:dc="http://purl.org/dc/elements/1.1/"
   xmlns:cc="http://creativecommons.org/ns#"
   xmlns:rdf="http://www.w3.org/1999/02/22-rdf-syntax-ns#"
   xmlns:svg="http://www.w3.org/2000/svg"
   xmlns="http://www.w3.org/2000/svg"
   xmlns:sodipodi="http://sodipodi.sourceforge.net/DTD/sodipodi-0.dtd"
   xmlns:inkscape="http://www.inkscape.org/namespaces/inkscape"
   version="1.1"
   width="640"
   height="480"
   id="svg2849"
   inkscape:version="0.47 r22583"
   sodipodi:docname="upside-down.svg">
  <metadata
     id="metadata14">
    <rdf:RDF>
      <cc:Work
         rdf:about="">
        <dc:format>image/svg+xml</dc:format>
        <dc:type
           rdf:resource="http://purl.org/dc/dcmitype/StillImage" />
        <dc:title></dc:title>
      </cc:Work>
    </rdf:RDF>
  </metadata>
  <sodipodi:namedview
     pagecolor="#ffffff"
     bordercolor="#666666"
     borderopacity="1"
     objecttolerance="10"
     gridtolerance="10"
     guidetolerance="10"
     inkscape:pageopacity="0"
     inkscape:pageshadow="2"
     inkscape:window-width="1280"
     inkscape:window-height="752"
     id="namedview12"
     showgrid="false"
     inkscape:zoom="4"
     inkscape:cx="296.76899"
     inkscape:cy="197.46715"
     inkscape:window-x="0"
     inkscape:window-y="25"
     inkscape:window-maximized="1"
     inkscape:current-layer="canvas" />
  <defs
     id="defs2851">
    <inkscape:perspective
       sodipodi:type="inkscape:persp3d"
       inkscape:vp_x="0 : 240 : 1"
       inkscape:vp_y="0 : 1000 : 0"
       inkscape:vp_z="640 : 240 : 1"
       inkscape:persp3d-origin="320 : 160 : 1"
       id="perspective16" />
  </defs>
  <g
     id="canvas">
    <g
       id="g2873"
       class="group group_4"
       transform="matrix(0.96592583,-0.25881905,0.25881905,0.96592583,0,0)">
      <g
         style="font-size:40px;font-style:normal;font-weight:normal;fill:#000000;fill-opacity:1;stroke:none;font-family:Bitstream Vera Sans"
         id="text2859">
        <path
           d="m 137.77768,285.79309 -1.89844,-10.33594 -0.70312,0 c -1.17194,2.01564 -2.57819,3.77345 -4.21875,5.27344 -1.59381,1.45313 -3.35162,2.67188 -5.27344,3.65625 -1.92192,0.9375 -3.96098,1.64063 -6.11719,2.10938 -2.15629,0.46874 -4.35941,0.70312 -6.60937,0.70312 -4.26566,0 -8.01566,-0.53906 -11.25,-1.61719 -3.234401,-1.07812 -5.929711,-2.76562 -8.085941,-5.0625 -2.156265,-2.29686 -3.796889,-5.22655 -4.921875,-8.78906 -1.078137,-3.56248 -1.617199,-7.80466 -1.617187,-12.72656 l 0,-50.41406 12.796875,0 0,49.71093 c -2.4e-5,6.09377 1.242158,10.66408 3.726558,13.71094 2.48435,3.04689 6.3281,4.57032 11.53125,4.57031 3.79684,10e-6 6.98433,-0.60936 9.5625,-1.82812 2.57808,-1.21874 4.64058,-2.99999 6.1875,-5.34375 1.5937,-2.39061 2.7187,-5.32029 3.375,-8.78906 0.70307,-3.46873 1.05463,-7.4531 1.05469,-11.95313 l 0,-40.07812 12.79688,0 0,77.20312 -10.33594,0"
           style="font-size:144px;font-variant:normal;font-stretch:normal;font-family:Droid Sans;-inkscape-font-specification:Droid Sans"
           id="path3626" />
        <path
           d="m 207.59799,287.19934 c -2.76567,0 -5.27348,-0.30469 -7.52344,-0.91406 -2.25003,-0.60938 -4.28909,-1.40625 -6.11718,-2.39063 -1.78128,-1.03124 -3.37503,-2.22656 -4.78125,-3.58593 -1.35941,-1.35937 -2.57815,-2.78906 -3.65625,-4.28907 l -0.84375,0 c 0.1406,1.59376 0.28122,3.1172 0.42187,4.57032 0.0937,1.21875 0.18748,2.48437 0.28125,3.79687 0.0937,1.26563 0.1406,2.27344 0.14063,3.02344 l 0,32.97656 -12.79688,0 0,-111.79687 10.40625,0 1.82813,10.40625 0.5625,0 c 1.0781,-1.64056 2.29684,-3.164 3.65625,-4.57032 1.35934,-1.45305 2.92965,-2.69524 4.71093,-3.72656 1.82809,-1.07805 3.86715,-1.9218 6.11719,-2.53125 2.24996,-0.65617 4.78121,-0.9843 7.59375,-0.98437 4.4062,7e-5 8.41401,0.84382 12.02344,2.53125 3.60931,1.68757 6.67962,4.21882 9.21094,7.59375 2.57805,3.32819 4.57024,7.47662 5.97656,12.44531 1.40617,4.9688 2.1093,10.73442 2.10937,17.29687 -7e-5,6.60941 -0.7032,12.4219 -2.10937,17.4375 -1.40632,4.96877 -3.39851,9.14064 -5.97656,12.51563 -2.53132,3.375 -5.60163,5.92969 -9.21094,7.66406 -3.60943,1.6875 -7.61724,2.53125 -12.02344,2.53125 m -2.46094,-69.39844 c -3.56254,7e-5 -6.58597,0.53913 -9.07031,1.61719 -2.43753,1.07819 -4.42972,2.71881 -5.97656,4.92188 -1.50003,2.20318 -2.62503,4.94536 -3.375,8.22656 -0.70315,3.2813 -1.10159,7.14848 -1.19531,11.60156 l 0,2.88281 c -3e-5,4.73441 0.30466,8.95316 0.91406,12.65625 0.65622,3.65628 1.73435,6.75002 3.23437,9.28125 1.54685,2.48439 3.58591,4.38283 6.11719,5.69532 2.53121,1.26563 5.69527,1.89844 9.49219,1.89843 6.32807,10e-6 10.96869,-2.55467 13.92187,-7.66406 2.99994,-5.10935 4.49994,-12.44528 4.5,-22.00781 -6e-5,-9.74995 -1.50006,-17.03901 -4.5,-21.86719 -2.95318,-4.82806 -7.64067,-7.24212 -14.0625,-7.24219"
           style="font-size:144px;font-variant:normal;font-stretch:normal;font-family:Droid Sans;-inkscape-font-specification:Droid Sans"
           id="path3628" />
        <path
           d="m 303.2933,264.62903 c -5e-5,3.75002 -0.67974,7.03126 -2.03906,9.84375 -1.35943,2.81251 -3.32818,5.17969 -5.90625,7.10156 -2.5313,1.875 -5.60161,3.28125 -9.21094,4.21875 -3.60941,0.9375 -7.66409,1.40625 -12.16406,1.40625 -5.1094,0 -9.49221,-0.42188 -13.14844,-1.26562 -3.65626,-0.79688 -6.86719,-1.99219 -9.63281,-3.58594 l 0,-11.67188 c 1.45312,0.75002 3.07031,1.50002 4.85156,2.25 1.78124,0.70314 3.65624,1.33595 5.625,1.89844 1.96874,0.56251 3.98436,1.03126 6.04688,1.40625 2.10935,0.32814 4.19528,0.4922 6.25781,0.49219 3.04684,10e-6 5.62497,-0.2578 7.73438,-0.77344 2.15621,-0.51561 3.89058,-1.24218 5.20312,-2.17969 1.35933,-0.98436 2.34371,-2.15623 2.95313,-3.51562 0.60933,-1.40623 0.91401,-2.95311 0.91406,-4.64063 -5e-5,-1.4531 -0.23442,-2.7656 -0.70313,-3.9375 -0.46879,-1.17185 -1.33598,-2.32028 -2.60156,-3.44531 -1.21879,-1.17185 -2.90629,-2.34372 -5.0625,-3.51562 -2.15628,-1.17185 -4.92191,-2.48435 -8.29687,-3.9375 -3.37503,-1.45309 -6.4219,-2.88278 -9.14063,-4.28907 -2.67189,-1.40621 -4.94533,-2.97652 -6.82031,-4.71093 -1.87501,-1.73433 -3.32814,-3.72652 -4.35938,-5.97657 -0.98438,-2.29682 -1.47657,-5.01557 -1.47656,-8.15625 -1e-5,-3.28119 0.63281,-6.18743 1.89844,-8.71875 1.31249,-2.57805 3.14061,-4.7343 5.48437,-6.46875 2.34374,-1.7343 5.15623,-3.0468 8.4375,-3.9375 3.28123,-0.89054 6.93747,-1.33586 10.96875,-1.33593 4.54684,7e-5 8.69527,0.49226 12.44532,1.47656 3.79682,0.98445 7.38276,2.27351 10.75781,3.86719 l -4.42969,10.33593 c -3.04692,-1.35931 -6.18754,-2.53118 -9.42187,-3.51562 -3.18754,-1.03118 -6.44535,-1.54681 -9.77344,-1.54688 -4.78128,7e-5 -8.32034,0.79695 -10.61719,2.39063 -2.29689,1.54694 -3.44533,3.7735 -3.44531,6.67969 -2e-5,1.64068 0.25779,3.07036 0.77344,4.28906 0.56248,1.2188 1.49997,2.36724 2.8125,3.44531 1.31247,1.07818 3.07028,2.17974 5.27343,3.30469 2.2031,1.07817 4.94528,2.29692 8.22657,3.65625 3.37496,1.40629 6.37495,2.81254 9,4.21875 2.67182,1.40629 4.94526,3.00004 6.82031,4.78125 1.87494,1.73441 3.30463,3.72659 4.28906,5.97656 0.98432,2.25003 1.47651,4.94534 1.47656,8.08594"
           style="font-size:144px;font-variant:normal;font-stretch:normal;font-family:Droid Sans;-inkscape-font-specification:Droid Sans"
           id="path3630" />
        <path
           d="m 334.86362,285.79309 -12.79688,0 0,-77.20312 12.79688,0 0,77.20312 m -13.78125,-98.08594 c -1e-5,-2.8124 0.70311,-4.85146 2.10937,-6.11718 1.45311,-1.26552 3.23436,-1.89834 5.34375,-1.89844 1.03123,1e-4 1.99217,0.16417 2.88281,0.49219 0.93748,0.28135 1.73436,0.7501 2.39063,1.40625 0.7031,0.65635 1.24216,1.5001 1.61719,2.53125 0.42185,0.98447 0.63278,2.17978 0.63281,3.58593 -3e-5,2.71885 -0.75003,4.75791 -2.25,6.11719 -1.45315,1.31259 -3.21096,1.96884 -5.27344,1.96875 -2.10939,9e-5 -3.89064,-0.65616 -5.34375,-1.96875 -1.40626,-1.31241 -2.10938,-3.35147 -2.10937,-6.11719"
           style="font-size:144px;font-variant:normal;font-stretch:normal;font-family:Droid Sans;-inkscape-font-specification:Droid Sans"
           id="path3632" />
        <path
           d="m 407.14487,275.45715 -0.5625,0 c -1.03131,1.59376 -2.25006,3.1172 -3.65625,4.57032 -1.35943,1.40625 -2.95318,2.64844 -4.78125,3.72656 -1.7813,1.07812 -3.79693,1.92187 -6.04688,2.53125 -2.25004,0.60937 -4.78129,0.91406 -7.59375,0.91406 -4.35941,0 -8.34378,-0.84375 -11.95312,-2.53125 -3.6094,-1.6875 -6.70315,-4.19531 -9.28125,-7.52344 -2.57814,-3.37498 -4.57033,-7.54686 -5.97657,-12.51562 -1.40625,-4.96873 -2.10938,-10.73434 -2.10937,-17.29688 -10e-6,-6.60933 0.70312,-12.39838 2.10937,-17.36718 1.40624,-5.01557 3.39843,-9.21088 5.97657,-12.58594 2.5781,-3.37493 5.67185,-5.90618 9.28125,-7.59375 3.60934,-1.7343 7.59371,-2.60149 11.95312,-2.60156 2.76559,7e-5 5.2734,0.30476 7.52344,0.91406 2.24995,0.60945 4.26558,1.42976 6.04687,2.46094 1.82808,1.03132 3.44526,2.22663 4.85157,3.58593 1.40619,1.35945 2.62494,2.78913 3.65625,4.28907 l 0.84375,0 c -0.14069,-1.59369 -0.28131,-3.11712 -0.42188,-4.57032 -0.0938,-1.21867 -0.18756,-2.46086 -0.28125,-3.72656 -0.0938,-1.31242 -0.14068,-2.34367 -0.14062,-3.09375 l 0,-30.65625 12.79687,0 0,109.40625 -10.33594,0 -1.89843,-10.33594 m -20.17969,1.125 c 3.56246,10e-6 6.56245,-0.53905 9,-1.61718 2.48432,-1.07812 4.47651,-2.71874 5.97656,-4.92188 1.54682,-2.20311 2.67182,-4.94529 3.375,-8.22656 0.74994,-3.3281 1.17182,-7.19528 1.26563,-11.60156 l 0,-2.88282 c -6e-5,-4.73433 -0.32819,-8.92964 -0.98438,-12.58593 -0.60943,-3.70307 -1.68755,-6.79682 -3.23437,-9.28125 -1.50006,-2.53119 -3.51568,-4.42963 -6.04688,-5.69532 -2.53129,-1.31243 -5.69535,-1.96868 -9.49219,-1.96875 -6.32815,7e-5 -10.99221,2.55476 -13.99218,7.66407 -2.95315,5.10943 -4.42971,12.44536 -4.42969,22.00781 -2e-5,9.7969 1.47654,17.10939 4.42969,21.9375 2.99997,4.78126 7.7109,7.17188 14.13281,7.17187"
           style="font-size:144px;font-variant:normal;font-stretch:normal;font-family:Droid Sans;-inkscape-font-specification:Droid Sans"
           id="path3634" />
        <path
           d="m 474.36362,287.19934 c -5.15629,0 -9.86722,-0.86719 -14.13282,-2.60156 -4.26564,-1.73437 -7.94533,-4.26562 -11.03906,-7.59375 -3.04689,-3.32811 -5.41407,-7.45311 -7.10156,-12.375 -1.68751,-4.92185 -2.53126,-10.54684 -2.53125,-16.875 -10e-6,-6.37496 0.77343,-12.07026 2.32031,-17.08594 1.54687,-5.01556 3.72655,-9.25775 6.53906,-12.72656 2.81248,-3.51556 6.16404,-6.18743 10.05469,-8.01563 3.93747,-1.82804 8.2734,-2.74211 13.00781,-2.74218 4.64058,7e-5 8.81246,0.84382 12.51563,2.53125 3.70307,1.6407 6.84369,3.98444 9.42187,7.03125 2.57807,3.00006 4.54681,6.63287 5.90625,10.89843 1.40619,4.21881 2.10931,8.9063 2.10938,14.0625 l 0,7.94532 -48.65625,0 c 0.23435,9.0469 2.13279,15.70314 5.69531,19.96875 3.60935,4.26563 8.95309,6.39844 16.03125,6.39843 2.39058,10e-6 4.5937,-0.11717 6.60938,-0.35156 2.06245,-0.23436 4.03119,-0.56249 5.90625,-0.98437 1.92181,-0.46874 3.77338,-1.03124 5.55468,-1.6875 1.78119,-0.70312 3.58588,-1.47655 5.41407,-2.32032 l 0,11.39063 c -1.87507,0.89063 -3.72663,1.66406 -5.55469,2.32031 -1.78131,0.65625 -3.63287,1.19531 -5.55469,1.61719 -1.87505,0.42187 -3.8438,0.72656 -5.90625,0.91406 -2.01567,0.1875 -4.21879,0.28125 -6.60937,0.28125 m -3.16407,-69.39844 c -5.34378,7e-5 -9.58596,1.82819 -12.72656,5.48438 -3.09377,3.65631 -4.89846,8.97661 -5.41406,15.96094 l 34.59375,0 c -6e-5,-3.18745 -0.32818,-6.0937 -0.98438,-8.71875 -0.60943,-2.67182 -1.5938,-4.94526 -2.95312,-6.82032 -1.31255,-1.87493 -3.00005,-3.32806 -5.0625,-4.35937 -2.06255,-1.03118 -4.54692,-1.54681 -7.45313,-1.54688"
           style="font-size:144px;font-variant:normal;font-stretch:normal;font-family:Droid Sans;-inkscape-font-specification:Droid Sans"
           id="path3636" />
      </g>
    </g>
    <g
       id="g2828"
       class="group group_1"
       transform="matrix(-0.96592583,0.25881905,-0.25881905,-0.96592583,704.72393,414.02878)">
      <g
         style="font-size:40px;font-style:normal;font-weight:normal;fill:#000000;fill-opacity:1;stroke:none;font-family:Bitstream Vera Sans"
         id="text2822">
        <path
           d="m 135.45737,275.45715 -0.5625,0 c -1.03131,1.59376 -2.25006,3.1172 -3.65625,4.57032 -1.35943,1.40625 -2.95318,2.64844 -4.78125,3.72656 -1.7813,1.07812 -3.79693,1.92187 -6.04688,2.53125 -2.25004,0.60937 -4.78129,0.91406 -7.59375,0.91406 -4.35941,0 -8.34378,-0.84375 -11.95312,-2.53125 -3.6094,-1.6875 -6.703147,-4.19531 -9.281253,-7.52344 -2.578139,-3.37498 -4.570324,-7.54686 -5.976563,-12.51562 -1.406258,-4.96873 -2.109383,-10.73434 -2.109375,-17.29688 -8e-6,-6.60933 0.703117,-12.39838 2.109375,-17.36718 1.406239,-5.01557 3.398424,-9.21088 5.976563,-12.58594 2.578106,-3.37493 5.671853,-5.90618 9.281253,-7.59375 3.60934,-1.7343 7.59371,-2.60149 11.95312,-2.60156 2.76559,7e-5 5.2734,0.30476 7.52344,0.91406 2.24995,0.60945 4.26558,1.42976 6.04687,2.46094 1.82808,1.03132 3.44526,2.22663 4.85157,3.58593 1.40619,1.35945 2.62494,2.78913 3.65625,4.28907 l 0.84375,0 c -0.14069,-1.59369 -0.28131,-3.11712 -0.42188,-4.57032 -0.0938,-1.21867 -0.18756,-2.46086 -0.28125,-3.72656 -0.0938,-1.31242 -0.14068,-2.34367 -0.14062,-3.09375 l 0,-30.65625 12.79687,0 0,109.40625 -10.33594,0 -1.89843,-10.33594 m -20.17969,1.125 c 3.56246,10e-6 6.56245,-0.53905 9,-1.61718 2.48432,-1.07812 4.47651,-2.71874 5.97656,-4.92188 1.54682,-2.20311 2.67182,-4.94529 3.375,-8.22656 0.74994,-3.3281 1.17182,-7.19528 1.26563,-11.60156 l 0,-2.88282 c -6e-5,-4.73433 -0.32819,-8.92964 -0.98438,-12.58593 -0.60943,-3.70307 -1.68755,-6.79682 -3.23437,-9.28125 -1.50006,-2.53119 -3.51568,-4.42963 -6.04688,-5.69532 -2.53129,-1.31243 -5.69535,-1.96868 -9.49219,-1.96875 -6.32815,7e-5 -10.99221,2.55476 -13.99218,7.66407 -2.953151,5.10943 -4.429712,12.44536 -4.429691,22.00781 -2.1e-5,9.7969 1.47654,17.10939 4.429691,21.9375 2.99997,4.78126 7.7109,7.17188 14.13281,7.17187"
           style="font-size:144px;font-variant:normal;font-stretch:normal;font-family:Droid Sans;-inkscape-font-specification:Droid Sans"
           id="path3617" />
        <path
           d="m 235.09018,247.0509 c -8e-5,6.42191 -0.79695,12.14065 -2.39063,17.15625 -1.54694,4.96877 -3.79694,9.16408 -6.75,12.58594 -2.90631,3.37501 -6.44537,5.95313 -10.61718,7.73438 -4.17193,1.78125 -8.85942,2.67187 -14.0625,2.67187 -4.82816,0 -9.28129,-0.89062 -13.35938,-2.67187 -4.07815,-1.78125 -7.61721,-4.35937 -10.61719,-7.73438 -2.95313,-3.42186 -5.27345,-7.61717 -6.96093,-12.58594 -1.64064,-5.0156 -2.46095,-10.73434 -2.46094,-17.15625 -1e-5,-6.37495 0.77343,-12.02338 2.32031,-16.94531 1.59374,-4.96869 3.84374,-9.14056 6.75,-12.51562 2.90623,-3.42181 6.44529,-5.99993 10.61719,-7.73438 4.21872,-1.78117 8.92965,-2.6718 14.13281,-2.67187 4.82808,7e-5 9.2812,0.8907 13.35938,2.67187 4.07806,1.73445 7.59368,4.31257 10.54687,7.73438 2.99993,3.37506 5.32024,7.54693 6.96094,12.51562 1.68743,4.92193 2.53117,10.57036 2.53125,16.94531 m -54,0 c -2e-5,9.79691 1.59373,17.17971 4.78125,22.14844 3.23435,4.92189 8.4609,7.38282 15.67969,7.38281 7.2187,10e-6 12.39838,-2.46092 15.53906,-7.38281 3.18744,-4.96873 4.78119,-12.35153 4.78125,-22.14844 -6e-5,-9.79682 -1.61725,-17.10932 -4.85156,-21.9375 -3.18756,-4.87493 -8.39068,-7.31243 -15.60938,-7.3125 -7.21878,7e-5 -12.4219,2.43757 -15.60937,7.3125 -3.14065,4.82818 -4.71096,12.14068 -4.71094,21.9375"
           style="font-size:144px;font-variant:normal;font-stretch:normal;font-family:Droid Sans;-inkscape-font-specification:Droid Sans"
           id="path3619" />
        <path
           d="m 314.05112,285.79309 -11.8125,-43.3125 c -0.18756,-0.84371 -0.42194,-1.7812 -0.70313,-2.8125 -0.28131,-1.07808 -0.56256,-2.20308 -0.84375,-3.375 -0.28131,-1.17182 -0.58599,-2.36713 -0.91406,-3.58594 -0.28131,-1.21869 -0.56256,-2.414 -0.84375,-3.58593 -0.65631,-2.71869 -1.33599,-5.53119 -2.03906,-8.4375 l -0.42188,0 c -0.6563,2.95318 -1.28911,5.78912 -1.89844,8.50781 -0.51567,2.3438 -1.07817,4.75786 -1.6875,7.24219 -0.56254,2.48442 -1.10161,4.59379 -1.61718,6.32812 l -12.09375,43.03125 -14.83594,0 -19.75781,-77.20312 13.42968,0 9.21094,41.0625 c 0.46873,2.1094 0.93748,4.40628 1.40625,6.89062 0.46873,2.43753 0.91404,4.87503 1.33594,7.3125 0.42185,2.39065 0.79685,4.66408 1.125,6.82031 0.3281,2.10939 0.58591,3.84376 0.77344,5.20313 l 0.42187,0 c 0.23435,-1.21874 0.53903,-2.83593 0.91406,-4.85156 0.42185,-2.06249 0.86716,-4.21874 1.33594,-6.46875 0.5156,-2.29686 1.03122,-4.54685 1.54688,-6.75 0.51559,-2.24997 1.00778,-4.14841 1.47656,-5.69532 l 12.58594,-43.52343 13.78125,0 12.09375,43.52343 c 0.4218,1.59379 0.89055,3.46878 1.40625,5.625 0.56242,2.15628 1.10148,4.3594 1.61718,6.60938 0.51555,2.20314 0.9843,4.33595 1.40625,6.39844 0.4218,2.06251 0.72649,3.77344 0.91407,5.13281 l 0.42187,0 c 0.14055,-1.21874 0.35149,-2.83593 0.63281,-4.85156 0.32805,-2.06249 0.70305,-4.31249 1.125,-6.75 0.4218,-2.43748 0.86711,-4.92185 1.33594,-7.45313 0.51554,-2.57809 1.03117,-4.96872 1.54688,-7.17187 l 9.63281,-41.0625 13.07812,0 -19.96875,77.20312 -15.11718,0"
           style="font-size:144px;font-variant:normal;font-stretch:normal;font-family:Droid Sans;-inkscape-font-specification:Droid Sans"
           id="path3621" />
        <path
           d="m 411.08237,285.79309 0,-49.71094 c -6e-5,-6.09369 -1.24225,-10.664 -3.72657,-13.71093 -2.43755,-3.04681 -6.2813,-4.57025 -11.53125,-4.57032 -3.79691,7e-5 -6.98441,0.60945 -9.5625,1.82813 -2.57815,1.21881 -4.66409,3.0235 -6.25781,5.41406 -1.5469,2.39068 -2.6719,5.32037 -3.375,8.78906 -0.65627,3.4688 -0.9844,7.45317 -0.98437,11.95313 l 0,40.00781 -12.79688,0 0,-77.20312 10.40625,0 1.82813,10.40625 0.70312,0 c 1.17185,-2.01556 2.55466,-3.74993 4.14844,-5.20313 1.64059,-1.49993 3.42184,-2.74211 5.34375,-3.72656 1.92184,-0.9843 3.9609,-1.71086 6.11719,-2.17969 2.1562,-0.46867 4.35933,-0.70305 6.60937,-0.70312 8.57807,7e-5 15.02338,2.25007 19.33594,6.75 4.3593,4.45319 6.53899,11.60162 6.53906,21.44531 l 0,50.41406 -12.79687,0"
           style="font-size:144px;font-variant:normal;font-stretch:normal;font-family:Droid Sans;-inkscape-font-specification:Droid Sans"
           id="path3623" />
      </g>
    </g>
    <g
       id="g2822"
       transform="matrix(0.02588191,0.09659258,-0.09659258,0.02588191,265.75186,235.77083)"
       style="fill:#eeeeec"
       class="group group_2">
      <g
         transform="translate(-64,65)"
         style="font-size:40px;font-style:normal;font-weight:normal;fill-opacity:1;stroke:none;font-family:Bitstream Vera Sans"
         id="text2818">
        <path
           d="m 84.541054,294.01596 61.453126,0 0,11.8125 -48.656251,56.60156 48.656251,0 0,10.33594 -63.210939,0 0,-11.8125 48.656249,-56.60156 -46.898436,0 0,-10.33594"
           style="font-size:144px;fill:#ffffff"
           id="path3639" />
        <path
           d="m 196.33793,303.08627 c -6.93754,7e-5 -12.42191,2.71882 -16.45313,8.15625 -4.03127,5.39068 -6.04689,12.79693 -6.04687,22.21875 -2e-5,9.42191 1.99216,16.85159 5.97656,22.28907 4.03122,5.39063 9.53903,8.08594 16.52344,8.08593 6.89057,10e-6 12.3515,-2.71874 16.38281,-8.15625 4.03119,-5.43747 6.04681,-12.84372 6.04688,-22.21875 -7e-5,-9.32807 -2.01569,-16.71088 -6.04688,-22.14843 -4.03131,-5.48431 -9.49224,-8.2265 -16.38281,-8.22657 m 0,-10.96875 c 11.24994,8e-5 20.08587,3.65633 26.50781,10.96875 6.4218,7.31257 9.63273,17.43756 9.63281,30.375 -8e-5,12.89065 -3.21101,23.01564 -9.63281,30.375 -6.42194,7.3125 -15.25787,10.96875 -26.50781,10.96875 -11.29691,0 -20.15628,-3.65625 -26.57813,-10.96875 -6.37501,-7.35936 -9.5625,-17.48435 -9.5625,-30.375 0,-12.93744 3.18749,-23.06243 9.5625,-30.375 6.42185,-7.31242 15.28122,-10.96867 26.57813,-10.96875"
           style="font-size:144px;fill:#ffffff"
           id="path3641" />
        <path
           d="m 284.36918,303.08627 c -6.93754,7e-5 -12.42191,2.71882 -16.45313,8.15625 -4.03127,5.39068 -6.04689,12.79693 -6.04687,22.21875 -2e-5,9.42191 1.99216,16.85159 5.97656,22.28907 4.03122,5.39063 9.53903,8.08594 16.52344,8.08593 6.89057,10e-6 12.3515,-2.71874 16.38281,-8.15625 4.03119,-5.43747 6.04681,-12.84372 6.04688,-22.21875 -7e-5,-9.32807 -2.01569,-16.71088 -6.04688,-22.14843 -4.03131,-5.48431 -9.49224,-8.2265 -16.38281,-8.22657 m 0,-10.96875 c 11.24994,8e-5 20.08587,3.65633 26.50781,10.96875 6.4218,7.31257 9.63273,17.43756 9.63281,30.375 -8e-5,12.89065 -3.21101,23.01564 -9.63281,30.375 -6.42194,7.3125 -15.25787,10.96875 -26.50781,10.96875 -11.29691,0 -20.15628,-3.65625 -26.57813,-10.96875 -6.37501,-7.35936 -9.5625,-17.48435 -9.5625,-30.375 0,-12.93744 3.18749,-23.06243 9.5625,-30.375 6.42185,-7.31242 15.28122,-10.96867 26.57813,-10.96875"
           style="font-size:144px;fill:#ffffff"
           id="path3643" />
        <path
           d="m 372.40043,303.08627 c -6.93754,7e-5 -12.42191,2.71882 -16.45313,8.15625 -4.03127,5.39068 -6.04689,12.79693 -6.04687,22.21875 -2e-5,9.42191 1.99216,16.85159 5.97656,22.28907 4.03122,5.39063 9.53903,8.08594 16.52344,8.08593 6.89057,10e-6 12.3515,-2.71874 16.38281,-8.15625 4.03119,-5.43747 6.04681,-12.84372 6.04688,-22.21875 -7e-5,-9.32807 -2.01569,-16.71088 -6.04688,-22.14843 -4.03131,-5.48431 -9.49224,-8.2265 -16.38281,-8.22657 m 0,-10.96875 c 11.24994,8e-5 20.08587,3.65633 26.50781,10.96875 6.4218,7.31257 9.63273,17.43756 9.63281,30.375 -8e-5,12.89065 -3.21101,23.01564 -9.63281,30.375 -6.42194,7.3125 -15.25787,10.96875 -26.50781,10.96875 -11.29691,0 -20.15628,-3.65625 -26.57813,-10.96875 -6.37501,-7.35936 -9.5625,-17.48435 -9.5625,-30.375 0,-12.93744 3.18749,-23.06243 9.5625,-30.375 6.42185,-7.31242 15.28122,-10.96867 26.57813,-10.96875"
           style="font-size:144px;fill:#ffffff"
           id="path3645" />
        <path
           d="m 460.43168,303.08627 c -6.93754,7e-5 -12.42191,2.71882 -16.45313,8.15625 -4.03127,5.39068 -6.04689,12.79693 -6.04687,22.21875 -2e-5,9.42191 1.99216,16.85159 5.97656,22.28907 4.03122,5.39063 9.53903,8.08594 16.52344,8.08593 6.89057,10e-6 12.3515,-2.71874 16.38281,-8.15625 4.03119,-5.43747 6.04681,-12.84372 6.04688,-22.21875 -7e-5,-9.32807 -2.01569,-16.71088 -6.04688,-22.14843 -4.03131,-5.48431 -9.49224,-8.2265 -16.38281,-8.22657 m 0,-10.96875 c 11.24994,8e-5 20.08587,3.65633 26.50781,10.96875 6.4218,7.31257 9.63273,17.43756 9.63281,30.375 -8e-5,12.89065 -3.21101,23.01564 -9.63281,30.375 -6.42194,7.3125 -15.25787,10.96875 -26.50781,10.96875 -11.29691,0 -20.15628,-3.65625 -26.57813,-10.96875 -6.37501,-7.35936 -9.5625,-17.48435 -9.5625,-30.375 0,-12.93744 3.18749,-23.06243 9.5625,-30.375 6.42185,-7.31242 15.28122,-10.96867 26.57813,-10.96875"
           style="font-size:144px;fill:#ffffff"
           id="path3647" />
        <path
           d="m 579.2598,309.13315 c 3.2343,-5.81243 7.10148,-10.10149 11.60157,-12.86719 4.49991,-2.76555 9.79677,-4.14836 15.89062,-4.14844 8.20302,8e-5 14.53113,2.88289 18.98438,8.64844 4.453,5.71882 6.67956,13.87506 6.67968,24.46875 l 0,47.53125 -13.00781,0 0,-47.10937 c -1.1e-4,-7.54682 -1.33605,-13.14838 -4.00781,-16.80469 -2.67198,-3.65618 -6.75011,-5.48431 -12.23438,-5.48438 -6.70321,7e-5 -12.00008,2.22663 -15.89062,6.67969 -3.89071,4.45318 -5.83602,10.52349 -5.83594,18.21094 l 0,44.50781 -13.00781,0 0,-47.10937 c -7e-5,-7.5937 -1.336,-13.19526 -4.00781,-16.80469 -2.67194,-3.65618 -6.79693,-5.48431 -12.375,-5.48438 -6.60942,7e-5 -11.85941,2.25007 -15.75,6.75 -3.89066,4.45319 -5.83597,10.50006 -5.83594,18.14063 l 0,44.50781 -13.00781,0 0,-78.75 13.00781,0 0,12.23438 c 2.95309,-4.82806 6.49215,-8.39055 10.61719,-10.6875 4.12496,-2.2968 9.02339,-3.44524 14.69531,-3.44532 5.71869,8e-5 10.57025,1.45321 14.55469,4.35938 4.03118,2.90632 7.00774,7.12507 8.92968,12.65625"
           style="font-size:144px;fill:#ffffff"
           id="path3649" />
        <path
           d="m 666.4473,354.90659 14.27344,0 0,17.85937 -14.27344,0 0,-17.85937 m 0,-87.11719 14.27344,0 0,46.05469 -1.40625,25.10156 -11.39062,0 -1.47657,-25.10156 0,-46.05469"
           style="font-size:144px;fill:#ffffff"
           id="path3651" />
      </g>
    </g>
    <g
       style="fill:#000000;fill-opacity:1"
       transform="matrix(0.00965926,-0.00258819,0.00258819,0.00965926,242.09806,301.12534)"
       id="g3604"
       class="group group_3">
      <g
         transform="translate(-64,65)"
         style="font-size:40px;font-style:normal;font-weight:normal;fill:#000000;stroke:none;font-family:Bitstream Vera Sans"
         id="text3606">
        <path
           d="m 84.541054,294.01596 61.453126,0 0,11.8125 -48.656251,56.60156 48.656251,0 0,10.33594 -63.210939,0 0,-11.8125 48.656249,-56.60156 -46.898436,0 0,-10.33594"
           style="font-size:144px;fill:#000000"
           id="path3654" />
        <path
           d="m 196.33793,303.08627 c -6.93754,7e-5 -12.42191,2.71882 -16.45313,8.15625 -4.03127,5.39068 -6.04689,12.79693 -6.04687,22.21875 -2e-5,9.42191 1.99216,16.85159 5.97656,22.28907 4.03122,5.39063 9.53903,8.08594 16.52344,8.08593 6.89057,10e-6 12.3515,-2.71874 16.38281,-8.15625 4.03119,-5.43747 6.04681,-12.84372 6.04688,-22.21875 -7e-5,-9.32807 -2.01569,-16.71088 -6.04688,-22.14843 -4.03131,-5.48431 -9.49224,-8.2265 -16.38281,-8.22657 m 0,-10.96875 c 11.24994,8e-5 20.08587,3.65633 26.50781,10.96875 6.4218,7.31257 9.63273,17.43756 9.63281,30.375 -8e-5,12.89065 -3.21101,23.01564 -9.63281,30.375 -6.42194,7.3125 -15.25787,10.96875 -26.50781,10.96875 -11.29691,0 -20.15628,-3.65625 -26.57813,-10.96875 -6.37501,-7.35936 -9.5625,-17.48435 -9.5625,-30.375 0,-12.93744 3.18749,-23.06243 9.5625,-30.375 6.42185,-7.31242 15.28122,-10.96867 26.57813,-10.96875"
           style="font-size:144px;fill:#000000"
           id="path3656" />
        <path
           d="m 284.36918,303.08627 c -6.93754,7e-5 -12.42191,2.71882 -16.45313,8.15625 -4.03127,5.39068 -6.04689,12.79693 -6.04687,22.21875 -2e-5,9.42191 1.99216,16.85159 5.97656,22.28907 4.03122,5.39063 9.53903,8.08594 16.52344,8.08593 6.89057,10e-6 12.3515,-2.71874 16.38281,-8.15625 4.03119,-5.43747 6.04681,-12.84372 6.04688,-22.21875 -7e-5,-9.32807 -2.01569,-16.71088 -6.04688,-22.14843 -4.03131,-5.48431 -9.49224,-8.2265 -16.38281,-8.22657 m 0,-10.96875 c 11.24994,8e-5 20.08587,3.65633 26.50781,10.96875 6.4218,7.31257 9.63273,17.43756 9.63281,30.375 -8e-5,12.89065 -3.21101,23.01564 -9.63281,30.375 -6.42194,7.3125 -15.25787,10.96875 -26.50781,10.96875 -11.29691,0 -20.15628,-3.65625 -26.57813,-10.96875 -6.37501,-7.35936 -9.5625,-17.48435 -9.5625,-30.375 0,-12.93744 3.18749,-23.06243 9.5625,-30.375 6.42185,-7.31242 15.28122,-10.96867 26.57813,-10.96875"
           style="font-size:144px;fill:#000000"
           id="path3658" />
        <path
           d="m 372.40043,303.08627 c -6.93754,7e-5 -12.42191,2.71882 -16.45313,8.15625 -4.03127,5.39068 -6.04689,12.79693 -6.04687,22.21875 -2e-5,9.42191 1.99216,16.85159 5.97656,22.28907 4.03122,5.39063 9.53903,8.08594 16.52344,8.08593 6.89057,10e-6 12.3515,-2.71874 16.38281,-8.15625 4.03119,-5.43747 6.04681,-12.84372 6.04688,-22.21875 -7e-5,-9.32807 -2.01569,-16.71088 -6.04688,-22.14843 -4.03131,-5.48431 -9.49224,-8.2265 -16.38281,-8.22657 m 0,-10.96875 c 11.24994,8e-5 20.08587,3.65633 26.50781,10.96875 6.4218,7.31257 9.63273,17.43756 9.63281,30.375 -8e-5,12.89065 -3.21101,23.01564 -9.63281,30.375 -6.42194,7.3125 -15.25787,10.96875 -26.50781,10.96875 -11.29691,0 -20.15628,-3.65625 -26.57813,-10.96875 -6.37501,-7.35936 -9.5625,-17.48435 -9.5625,-30.375 0,-12.93744 3.18749,-23.06243 9.5625,-30.375 6.42185,-7.31242 15.28122,-10.96867 26.57813,-10.96875"
           style="font-size:144px;fill:#000000"
           id="path3660" />
        <path
           d="m 460.43168,303.08627 c -6.93754,7e-5 -12.42191,2.71882 -16.45313,8.15625 -4.03127,5.39068 -6.04689,12.79693 -6.04687,22.21875 -2e-5,9.42191 1.99216,16.85159 5.97656,22.28907 4.03122,5.39063 9.53903,8.08594 16.52344,8.08593 6.89057,10e-6 12.3515,-2.71874 16.38281,-8.15625 4.03119,-5.43747 6.04681,-12.84372 6.04688,-22.21875 -7e-5,-9.32807 -2.01569,-16.71088 -6.04688,-22.14843 -4.03131,-5.48431 -9.49224,-8.2265 -16.38281,-8.22657 m 0,-10.96875 c 11.24994,8e-5 20.08587,3.65633 26.50781,10.96875 6.4218,7.31257 9.63273,17.43756 9.63281,30.375 -8e-5,12.89065 -3.21101,23.01564 -9.63281,30.375 -6.42194,7.3125 -15.25787,10.96875 -26.50781,10.96875 -11.29691,0 -20.15628,-3.65625 -26.57813,-10.96875 -6.37501,-7.35936 -9.5625,-17.48435 -9.5625,-30.375 0,-12.93744 3.18749,-23.06243 9.5625,-30.375 6.42185,-7.31242 15.28122,-10.96867 26.57813,-10.96875"
           style="font-size:144px;fill:#000000"
           id="path3662" />
        <path
           d="m 579.2598,309.13315 c 3.2343,-5.81243 7.10148,-10.10149 11.60157,-12.86719 4.49991,-2.76555 9.79677,-4.14836 15.89062,-4.14844 8.20302,8e-5 14.53113,2.88289 18.98438,8.64844 4.453,5.71882 6.67956,13.87506 6.67968,24.46875 l 0,47.53125 -13.00781,0 0,-47.10937 c -1.1e-4,-7.54682 -1.33605,-13.14838 -4.00781,-16.80469 -2.67198,-3.65618 -6.75011,-5.48431 -12.23438,-5.48438 -6.70321,7e-5 -12.00008,2.22663 -15.89062,6.67969 -3.89071,4.45318 -5.83602,10.52349 -5.83594,18.21094 l 0,44.50781 -13.00781,0 0,-47.10937 c -7e-5,-7.5937 -1.336,-13.19526 -4.00781,-16.80469 -2.67194,-3.65618 -6.79693,-5.48431 -12.375,-5.48438 -6.60942,7e-5 -11.85941,2.25007 -15.75,6.75 -3.89066,4.45319 -5.83597,10.50006 -5.83594,18.14063 l 0,44.50781 -13.00781,0 0,-78.75 13.00781,0 0,12.23438 c 2.95309,-4.82806 6.49215,-8.39055 10.61719,-10.6875 4.12496,-2.2968 9.02339,-3.44524 14.69531,-3.44532 5.71869,8e-5 10.57025,1.45321 14.55469,4.35938 4.03118,2.90632 7.00774,7.12507 8.92968,12.65625"
           style="font-size:144px;fill:#000000"
           id="path3664" />
        <path
           d="m 666.4473,354.90659 14.27344,0 0,17.85937 -14.27344,0 0,-17.85937 m 0,-87.11719 14.27344,0 0,46.05469 -1.40625,25.10156 -11.39062,0 -1.47657,-25.10156 0,-46.05469"
           style="font-size:144px;fill:#000000"
           id="path3666" />
      </g>
    </g>
  </g>
</svg>
